<svg xmlns="http://www.w3.org/2000/svg" viewBox="0 0 303 75.64">
  <defs>
    <style>
      .cls-1, .cls-4 {
        fill: #fff;
      }

      .cls-1 {
        font-size: 47px;
        font-family: AkzidenzGroteskBE-Regular, Berthold Akzidenz Grotesk;
        letter-spacing: 0.1em;
      }

      .cls-2, .cls-3 {
        fill: none;
        stroke: #fff;
        stroke-linecap: round;
        stroke-width: 6px;
      }

      .cls-2 {
        opacity: 0.75;
      }

      .cls-3 {
        opacity: 0.55;
      }

      .cls-5 {
        opacity: 0.65;
      }

      .cls-6 {
        opacity: 0.4;
      }
    </style>
  </defs>
  <g id="Group_18" data-name="Group 18" transform="translate(-83 -12.5)">
    <text id="PARQ" class="cls-1" transform="translate(315 69)"><tspan x="-70.712" y="0">PARQ</tspan></text>
    <g id="Group_8" data-name="Group 8" transform="translate(-1588 -1316)">
      <path id="Path_6" data-name="Path 6" class="cls-2" d="M0,0V69.64" transform="translate(1713.668 1331.5)"/>
      <path id="Path_1" data-name="Path 1" class="cls-3" d="M0,0V69.64" transform="translate(1768.7 1331.5)"/>
      <g id="_096e58cb5c015c588c07dccc8191f203" data-name="096e58cb5c015c588c07dccc8191f203" transform="translate(1671 1340.683)">
        <g id="Group_7" data-name="Group 7" transform="translate(0 0)">
          <path id="Path_4" data-name="Path 4" class="cls-4" d="M200.422-500.942A8.484,8.484,0,0,0,193.411-494a40.233,40.233,0,0,0-.154,5.4v4.5l-.627.216a5.329,5.329,0,0,0-3.444,3.906c-.237,1.141-.442,1.038,1.963,1.038h2.1l.031,11.174c.031,11.061.041,11.2.257,11.956a8.518,8.518,0,0,0,6.045,6.086c.812.237.9.237,5.808.237,4.842,0,5.007-.01,5.778-.226a8.6,8.6,0,0,0,6.117-6.22c.165-.586.175-1.706.206-11.833l.041-11.174h4.215l-.062-.494a5.3,5.3,0,0,0-3.536-4.452l-.627-.216v-4.4c0-2.539-.052-4.75-.113-5.212a8.513,8.513,0,0,0-6.158-7.032c-.751-.226-.925-.237-5.551-.257C203.064-501.014,200.689-500.983,200.422-500.942Zm8.44,13.827a18.358,18.358,0,0,1,5.315,1.511c.339.175.638.329.658.35s-.442,1.45-1.018,3.177l-1.049,3.156-.38-.062a57.981,57.981,0,0,0-14,0l-.381.062-1.049-3.156c-.576-1.727-1.028-3.166-1.018-3.177s.319-.175.658-.35a20.436,20.436,0,0,1,7.145-1.706A38.033,38.033,0,0,1,208.862-487.115Zm-7.947,22.73a59.844,59.844,0,0,0,10.589-.165c.453-.062.915-.1,1.038-.1.206,0,.329.288,1.234,3,.545,1.655,1.018,3.074,1.049,3.146a7.989,7.989,0,0,1-2.8,1.306,22.285,22.285,0,0,1-6.641.874,22.284,22.284,0,0,1-6.641-.874,7.975,7.975,0,0,1-2.8-1.306c.031-.072.5-1.491,1.059-3.156l1.007-3.023.627.072C198.982-464.57,200.011-464.467,200.915-464.385Z" transform="translate(-189.051 501.006)"/>
        </g>
      </g>
      <g id="_096e58cb5c015c588c07dccc8191f203-2" data-name="096e58cb5c015c588c07dccc8191f203" class="cls-5" transform="translate(1723.733 1340.683)">
        <g id="Group_7-2" data-name="Group 7" transform="translate(0 0)">
          <path id="Path_4-2" data-name="Path 4" class="cls-4" d="M200.422-500.942A8.484,8.484,0,0,0,193.411-494a40.233,40.233,0,0,0-.154,5.4v4.5l-.627.216a5.329,5.329,0,0,0-3.444,3.906c-.237,1.141-.442,1.038,1.963,1.038h2.1l.031,11.174c.031,11.061.041,11.2.257,11.956a8.518,8.518,0,0,0,6.045,6.086c.812.237.9.237,5.808.237,4.842,0,5.007-.01,5.778-.226a8.6,8.6,0,0,0,6.117-6.22c.165-.586.175-1.706.206-11.833l.041-11.174h4.215l-.062-.494a5.3,5.3,0,0,0-3.536-4.452l-.627-.216v-4.4c0-2.539-.052-4.75-.113-5.212a8.513,8.513,0,0,0-6.158-7.032c-.751-.226-.925-.237-5.551-.257C203.064-501.014,200.689-500.983,200.422-500.942Zm8.44,13.827a18.358,18.358,0,0,1,5.315,1.511c.339.175.638.329.658.35s-.442,1.45-1.018,3.177l-1.049,3.156-.38-.062a57.981,57.981,0,0,0-14,0l-.381.062-1.049-3.156c-.576-1.727-1.028-3.166-1.018-3.177s.319-.175.658-.35a20.436,20.436,0,0,1,7.145-1.706A38.033,38.033,0,0,1,208.862-487.115Zm-7.947,22.73a59.844,59.844,0,0,0,10.589-.165c.453-.062.915-.1,1.038-.1.206,0,.329.288,1.234,3,.545,1.655,1.018,3.074,1.049,3.146a7.989,7.989,0,0,1-2.8,1.306,22.285,22.285,0,0,1-6.641.874,22.284,22.284,0,0,1-6.641-.874,7.975,7.975,0,0,1-2.8-1.306c.031-.072.5-1.491,1.059-3.156l1.007-3.023.627.072C198.982-464.57,200.011-464.467,200.915-464.385Z" transform="translate(-189.051 501.006)"/>
        </g>
      </g>
      <g id="_096e58cb5c015c588c07dccc8191f203-3" data-name="096e58cb5c015c588c07dccc8191f203" class="cls-6" transform="translate(1778.785 1340.683)">
        <g id="Group_7-3" data-name="Group 7" transform="translate(0 0)">
          <path id="Path_4-3" data-name="Path 4" class="cls-4" d="M200.422-500.942A8.484,8.484,0,0,0,193.411-494a40.233,40.233,0,0,0-.154,5.4v4.5l-.627.216a5.329,5.329,0,0,0-3.444,3.906c-.237,1.141-.442,1.038,1.963,1.038h2.1l.031,11.174c.031,11.061.041,11.2.257,11.956a8.518,8.518,0,0,0,6.045,6.086c.812.237.9.237,5.808.237,4.842,0,5.007-.01,5.778-.226a8.6,8.6,0,0,0,6.117-6.22c.165-.586.175-1.706.206-11.833l.041-11.174h4.215l-.062-.494a5.3,5.3,0,0,0-3.536-4.452l-.627-.216v-4.4c0-2.539-.052-4.75-.113-5.212a8.513,8.513,0,0,0-6.158-7.032c-.751-.226-.925-.237-5.551-.257C203.064-501.014,200.689-500.983,200.422-500.942Zm8.44,13.827a18.358,18.358,0,0,1,5.315,1.511c.339.175.638.329.658.35s-.442,1.45-1.018,3.177l-1.049,3.156-.38-.062a57.981,57.981,0,0,0-14,0l-.381.062-1.049-3.156c-.576-1.727-1.028-3.166-1.018-3.177s.319-.175.658-.35a20.436,20.436,0,0,1,7.145-1.706A38.033,38.033,0,0,1,208.862-487.115Zm-7.947,22.73a59.844,59.844,0,0,0,10.589-.165c.453-.062.915-.1,1.038-.1.206,0,.329.288,1.234,3,.545,1.655,1.018,3.074,1.049,3.146a7.989,7.989,0,0,1-2.8,1.306,22.285,22.285,0,0,1-6.641.874,22.284,22.284,0,0,1-6.641-.874,7.975,7.975,0,0,1-2.8-1.306c.031-.072.5-1.491,1.059-3.156l1.007-3.023.627.072C198.982-464.57,200.011-464.467,200.915-464.385Z" transform="translate(-189.051 501.006)"/>
        </g>
      </g>
    </g>
  </g>
</svg>
